<?xml version="1.0" encoding="UTF-8" standalone="no"?>
<!DOCTYPE svg PUBLIC "-//W3C//DTD SVG 1.1//EN" "http://www.w3.org/Graphics/SVG/1.1/DTD/svg11.dtd">
<svg width="100%" height="100%" viewBox="0 0 800 182" version="1.1" xmlns="http://www.w3.org/2000/svg" xmlns:xlink="http://www.w3.org/1999/xlink" xml:space="preserve" xmlns:serif="http://www.serif.com/" style="fill-rule:evenodd;clip-rule:evenodd;stroke-linejoin:round;stroke-miterlimit:1.41421;">
    <g transform="matrix(5.26316,0,0,5.26316,0,0)">
        <g transform="matrix(1.00355,0,0,1.00355,0,-0.527866)">
            <path d="M82.926,22.367C82.919,22.369 82.917,22.378 82.909,22.38C82.659,22.45 82.394,22.325 82.3,22.08L73.849,0.545L70.034,0.545L70.03,35L74.215,35L74.215,12.667C74.221,12.665 74.223,12.657 74.23,12.655C74.479,12.575 74.744,12.71 74.84,12.955L83.295,35L87.104,35L87.104,0.545L82.925,0.545L82.926,22.367Z" style="fill:rgb(245,130,31);fill-rule:nonzero;"/>
        </g>
        <g transform="matrix(1.00355,0,0,1.00355,0,-0.527866)">
            <rect x="60.05" y="0.549" width="4.32" height="34.45" style="fill:rgb(245,130,31);fill-rule:nonzero;"/>
        </g>
        <g transform="matrix(1.00355,0,0,1.00355,0,-0.527866)">
            <path d="M124.301,18.894C124.391,18.764 124.546,18.684 124.711,18.684C126.825,18.684 127.671,18.544 128.011,18.429C128.822,18.134 129.201,17.524 129.201,16.504L129.201,2.724C129.201,1.224 128.481,0.549 126.871,0.544L112.836,0.544L112.836,34.999L117.156,34.999L117.156,4.374C117.156,4.099 117.381,3.874 117.656,3.874L124.381,3.874C124.656,3.874 124.881,4.099 124.881,4.374L124.881,15.779C124.881,16.054 124.656,16.279 124.381,16.279L119.651,16.279L119.651,18.739L125.391,34.999L129.876,34.999L124.237,19.355C124.181,19.199 124.206,19.029 124.301,18.894Z" style="fill:rgb(245,130,31);fill-rule:nonzero;"/>
        </g>
        <g transform="matrix(1.00355,0,0,1.00355,0,-0.527866)">
            <path d="M147.148,31.156C147.148,31.437 146.923,31.661 146.643,31.661L139.313,31.661C139.038,31.661 138.813,31.437 138.813,31.156L138.813,4.376C138.813,4.097 139.038,3.872 139.313,3.872L146.643,3.872C146.923,3.872 147.148,4.097 147.148,4.376L147.148,31.156ZM149.138,0.526L136.818,0.526C135.218,0.531 134.503,1.207 134.493,2.707L134.493,32.816C134.503,34.312 135.218,34.981 136.818,34.986L149.138,34.986C150.738,34.981 151.458,34.312 151.463,32.812L151.463,2.707C151.458,1.207 150.738,0.531 149.138,0.526Z" style="fill:rgb(245,130,31);fill-rule:nonzero;"/>
        </g>
        <g transform="matrix(1.00355,0,0,1.00355,0,-0.527866)">
            <path d="M106.8,0.545L92.764,0.545L92.764,35L97.08,35L97.08,4.375C97.08,4.101 97.304,3.875 97.585,3.875L104.305,3.875C104.585,3.875 104.81,4.101 104.81,4.375L104.81,15.775C104.81,16.056 104.585,16.28 104.305,16.28L99.58,16.28L99.58,19.625L104.64,19.625C106.83,19.625 107.645,19.461 107.94,19.36C108.745,19.065 109.125,18.456 109.125,17.44L109.125,2.721C109.125,1.221 108.41,0.55 106.8,0.545Z" style="fill:rgb(245,130,31);fill-rule:nonzero;"/>
        </g>
        <g transform="matrix(1.00355,0,0,1.00355,0,-0.527866)">
            <path d="M34.493,31.167C34.493,31.442 34.273,31.667 33.993,31.667L26.663,31.667C26.388,31.667 26.163,31.442 26.163,31.167L26.163,4.377C26.163,4.097 26.388,3.872 26.663,3.872L33.993,3.872C34.273,3.872 34.493,4.097 34.493,4.377L34.493,31.167ZM36.488,0.527L24.168,0.527C22.568,0.532 21.848,1.207 21.843,2.707L21.843,32.813C21.848,34.312 22.568,34.982 24.173,34.987L36.488,34.987C38.088,34.982 38.808,34.312 38.813,32.813L38.813,2.707C38.808,1.207 38.088,0.532 36.488,0.527Z" style="fill:rgb(245,130,31);fill-rule:nonzero;"/>
        </g>
        <g transform="matrix(1.00355,0,0,1.00355,0,-0.527866)">
            <path d="M44.436,34.999L48.886,34.999L48.886,20.129C48.886,19.854 49.111,19.629 49.386,19.629L56.261,19.629L56.261,16.278L49.386,16.278C49.111,16.278 48.886,16.054 48.886,15.773L48.886,4.374C48.886,4.099 49.111,3.874 49.386,3.874L56.581,3.874L56.581,0.543L44.436,0.543L44.436,34.999Z" style="fill:rgb(245,130,31);fill-rule:nonzero;"/>
        </g>
        <g transform="matrix(1.00355,0,0,1.00355,0,-0.527866)">
            <path d="M14.22,0.544L2.324,0.544C0.724,0.549 0.005,1.224 0,2.724L0,32.824C0.005,34.319 0.724,34.994 2.329,34.999L14.224,34.999C15.825,34.994 16.539,34.319 16.55,32.824L16.55,24.529L12.229,24.529L12.229,31.169C12.229,31.444 12.005,31.669 11.73,31.669L4.82,31.669C4.545,31.669 4.32,31.444 4.32,31.169L4.32,4.374C4.32,4.099 4.545,3.874 4.82,3.874L11.73,3.874C12.005,3.874 12.229,4.099 12.229,4.374L12.229,10.599L16.55,10.599L16.55,2.724C16.545,1.224 15.825,0.549 14.22,0.544Z" style="fill:rgb(245,130,31);fill-rule:nonzero;"/>
        </g>
    </g>
</svg>
